<?xml version="1.0" encoding="utf-8"?>
<!-- Generator: Adobe Illustrator 23.0.1, SVG Export Plug-In . SVG Version: 6.00 Build 0)  -->
<svg version="1.2" baseProfile="tiny" xmlns="http://www.w3.org/2000/svg" xmlns:xlink="http://www.w3.org/1999/xlink" x="0px"
	 y="0px" viewBox="0 0 124 23.68" xml:space="preserve">
<g id="Layer_1" display="none">
</g>
<g id="Layer_2">
	<g>
		<path fill="#43893F" d="M16.18,0.62c0.13,0,0.26,0.02,0.39,0.06s0.24,0.1,0.33,0.18s0.18,0.18,0.24,0.29s0.09,0.25,0.09,0.39
			c0,0.28-0.09,0.6-0.27,0.96s-0.42,0.78-0.71,1.26c-0.31,0.52-0.61,1.03-0.89,1.54s-0.54,1.01-0.78,1.48s-0.46,0.93-0.66,1.35
			s-0.37,0.8-0.52,1.13c0.18,0.02,0.36,0.04,0.55,0.05s0.35,0.02,0.49,0.01l0.01,0.36c-0.03,0-0.15,0-0.36,0s-0.49-0.03-0.84-0.08
			c-0.14,0.33-0.25,0.58-0.32,0.77s-0.11,0.28-0.11,0.29L12,10.43l0.41-0.94c-0.31-0.07-0.63-0.15-0.96-0.24s-0.68-0.19-1.03-0.31
			S9.73,8.7,9.38,8.55s-0.68-0.31-1-0.48c-0.3,0.34-0.62,0.68-0.96,1.01S6.7,9.71,6.3,9.97s-0.82,0.47-1.26,0.64
			s-0.91,0.24-1.4,0.24c-0.44,0-0.87-0.06-1.31-0.19s-0.82-0.32-1.17-0.57S0.54,9.54,0.32,9.18S0,8.41,0,7.96
			C0,7.6,0.07,7.28,0.2,7.01s0.32-0.5,0.55-0.68S1.27,6,1.58,5.91S2.24,5.77,2.6,5.77c0.28,0,0.57,0.03,0.86,0.08S4.06,6,4.34,6.13
			s0.55,0.3,0.8,0.51S5.61,7.1,5.78,7.41L5.48,7.6c0-0.01-0.03-0.04-0.08-0.11S5.29,7.36,5.19,7.27S4.98,7.09,4.83,6.99
			S4.51,6.79,4.31,6.71S3.87,6.55,3.61,6.5S3.04,6.41,2.7,6.41c-0.34,0-0.64,0.06-0.9,0.17S1.34,6.85,1.17,7.03s-0.3,0.38-0.38,0.6
			S0.66,8.08,0.66,8.29c0,0.25,0.04,0.47,0.13,0.67s0.2,0.39,0.35,0.55s0.32,0.31,0.52,0.43s0.41,0.22,0.63,0.3s0.45,0.14,0.68,0.18
			s0.45,0.06,0.67,0.06c0.45,0,0.88-0.07,1.3-0.22s0.81-0.34,1.18-0.59s0.72-0.52,1.04-0.83S7.78,8.22,8.06,7.9
			c-0.31-0.19-0.6-0.39-0.86-0.6s-0.49-0.45-0.68-0.7s-0.34-0.52-0.45-0.8S5.91,5.21,5.91,4.89c0-0.26,0.05-0.51,0.15-0.75
			s0.23-0.44,0.4-0.61s0.37-0.31,0.61-0.42s0.49-0.15,0.76-0.15c0.3,0,0.59,0.05,0.85,0.14s0.52,0.22,0.77,0.38s0.47,0.35,0.68,0.58
			s0.41,0.46,0.6,0.72c0.51-0.57,1.02-1.11,1.53-1.61s1-0.94,1.47-1.32s0.91-0.68,1.33-0.9S15.84,0.62,16.18,0.62z M6.54,5.22
			c0,0.24,0.05,0.47,0.14,0.69s0.22,0.42,0.38,0.62S7.4,6.91,7.62,7.09s0.46,0.34,0.71,0.5c0.34-0.41,0.69-0.83,1.05-1.25
			s0.72-0.83,1.08-1.24c-0.16-0.21-0.32-0.4-0.5-0.58S9.61,4.17,9.42,4.03S9.04,3.8,8.84,3.73S8.43,3.62,8.22,3.62
			c-0.24,0-0.46,0.04-0.67,0.12S7.16,3.93,7.01,4.08S6.75,4.39,6.66,4.58S6.54,4.99,6.54,5.22z M12.38,9.11
			c-0.06-0.21-0.15-0.45-0.26-0.75s-0.23-0.6-0.38-0.94s-0.31-0.68-0.49-1.03s-0.38-0.69-0.59-1c-0.31,0.36-0.64,0.73-0.98,1.12
			S9.01,7.32,8.64,7.77c0.32,0.18,0.65,0.34,1,0.48s0.69,0.27,1.02,0.38s0.65,0.21,0.94,0.29S12.16,9.07,12.38,9.11z M10.94,5.1
			c0.21,0.33,0.41,0.67,0.59,1.02s0.34,0.69,0.48,1.03s0.27,0.66,0.38,0.96s0.21,0.57,0.29,0.8c0.53-1.16,1.1-2.3,1.71-3.42
			s1.29-2.22,2.04-3.31c0.12-0.18,0.21-0.33,0.26-0.45s0.08-0.22,0.08-0.31c0-0.15-0.06-0.26-0.18-0.33s-0.26-0.11-0.42-0.11
			c-0.51,0-1.2,0.35-2.07,1.04S12.17,3.73,10.94,5.1z"/>
		<path fill="#43893F" d="M17.73,4.7c0.05-0.08,0.13-0.21,0.24-0.4s0.25-0.4,0.41-0.64s0.33-0.47,0.51-0.7s0.37-0.43,0.54-0.6
			l0.31,0.18c-0.2,0.32-0.4,0.67-0.6,1.03s-0.41,0.74-0.61,1.12h2.23l-0.14,0.36h-2.28c-0.21,0.41-0.4,0.82-0.58,1.22
			s-0.34,0.79-0.48,1.16s-0.24,0.71-0.32,1.04s-0.12,0.6-0.12,0.84c0,0.3,0.07,0.51,0.21,0.64s0.31,0.19,0.51,0.19
			c0.18,0,0.36-0.05,0.55-0.16s0.37-0.24,0.55-0.41s0.35-0.34,0.51-0.54s0.31-0.38,0.43-0.55s0.23-0.32,0.31-0.45
			s0.13-0.21,0.15-0.24l0.25,0.19c-0.16,0.26-0.34,0.54-0.54,0.84s-0.42,0.57-0.67,0.82s-0.51,0.46-0.8,0.63s-0.6,0.25-0.93,0.25
			c-0.21,0-0.38-0.04-0.54-0.11s-0.28-0.17-0.39-0.3s-0.18-0.28-0.24-0.46s-0.08-0.37-0.08-0.58c0-0.14,0.02-0.33,0.06-0.58
			s0.12-0.55,0.22-0.89s0.25-0.73,0.42-1.16s0.4-0.89,0.67-1.38h-1.13l0.14-0.36H17.73z"/>
		<path fill="#43893F" d="M23.93,8.48c0.02,0,0.04,0.01,0.05,0.01s0.04,0,0.06,0c0.13,0,0.24-0.01,0.35-0.04s0.2-0.06,0.29-0.12
			s0.17-0.13,0.26-0.22s0.16-0.2,0.24-0.32l0.25,0.19c-0.22,0.31-0.44,0.53-0.68,0.65s-0.48,0.18-0.74,0.18
			c-0.1,0-0.18-0.01-0.25-0.03c-0.2,0.33-0.41,0.61-0.63,0.84s-0.45,0.42-0.68,0.56s-0.46,0.25-0.69,0.32s-0.44,0.1-0.64,0.1
			c-0.2,0-0.39-0.04-0.56-0.11s-0.32-0.17-0.44-0.3S19.9,9.9,19.83,9.72s-0.1-0.39-0.1-0.62s0.04-0.46,0.11-0.7s0.17-0.47,0.3-0.7
			s0.27-0.46,0.44-0.67s0.35-0.42,0.55-0.6s0.4-0.36,0.61-0.51s0.42-0.27,0.63-0.37l0.22,0.29c-0.24,0.17-0.49,0.39-0.73,0.66
			s-0.47,0.55-0.68,0.87S20.8,8,20.67,8.34s-0.19,0.67-0.19,0.99c0,0.29,0.06,0.51,0.19,0.67s0.32,0.24,0.58,0.24
			c0.2,0,0.4-0.04,0.59-0.12s0.39-0.19,0.57-0.33s0.37-0.31,0.54-0.5s0.34-0.4,0.49-0.62c-0.13-0.08-0.25-0.18-0.35-0.31
			s-0.18-0.28-0.25-0.44s-0.12-0.35-0.15-0.54s-0.05-0.39-0.05-0.59s0.02-0.39,0.08-0.57s0.12-0.33,0.21-0.47s0.19-0.24,0.31-0.32
			s0.25-0.12,0.39-0.12c0.13,0,0.24,0.03,0.34,0.1s0.18,0.16,0.25,0.27s0.12,0.25,0.16,0.41s0.05,0.33,0.05,0.51
			c0,0.14-0.01,0.29-0.03,0.45s-0.06,0.33-0.1,0.5s-0.1,0.33-0.16,0.49S24.01,8.35,23.93,8.48z M23,6.77c0,0.13,0.01,0.28,0.03,0.43
			s0.06,0.31,0.11,0.45s0.11,0.28,0.19,0.41s0.17,0.22,0.29,0.3c0.08-0.16,0.15-0.32,0.21-0.49s0.1-0.33,0.14-0.48
			s0.07-0.3,0.08-0.43s0.02-0.25,0.02-0.35c0-0.14-0.01-0.26-0.03-0.38s-0.05-0.21-0.09-0.3s-0.09-0.15-0.14-0.2
			s-0.12-0.07-0.19-0.07c-0.09,0-0.18,0.03-0.25,0.09S23.22,5.9,23.17,6s-0.1,0.22-0.13,0.36S23,6.63,23,6.77z"/>
		<path fill="#43893F" d="M26,7.94c0.24-0.33,0.49-0.64,0.76-0.95s0.54-0.57,0.81-0.81s0.55-0.42,0.83-0.56s0.55-0.21,0.81-0.21
			c0.16,0,0.3,0.02,0.4,0.08s0.19,0.11,0.25,0.19s0.1,0.17,0.13,0.26s0.04,0.19,0.04,0.29c0,0.14-0.03,0.28-0.08,0.44
			s-0.13,0.32-0.24,0.48s-0.24,0.32-0.41,0.46s-0.36,0.28-0.59,0.4c0.05,0.12,0.08,0.26,0.08,0.43c0,0.1-0.01,0.21-0.04,0.32
			s-0.06,0.21-0.09,0.32S28.59,9.3,28.57,9.4s-0.04,0.22-0.04,0.32c0,0.05,0,0.11,0.01,0.16s0.02,0.1,0.04,0.14s0.05,0.07,0.1,0.1
			s0.1,0.04,0.18,0.04c0.09,0,0.2-0.04,0.31-0.11s0.24-0.17,0.38-0.3s0.27-0.27,0.41-0.43s0.27-0.33,0.41-0.51s0.26-0.35,0.38-0.53
			s0.23-0.34,0.33-0.5l0.25,0.19c-0.23,0.35-0.46,0.68-0.68,0.99s-0.44,0.59-0.66,0.83s-0.45,0.43-0.67,0.57s-0.46,0.21-0.7,0.21
			c-0.1,0-0.19-0.01-0.3-0.04s-0.2-0.07-0.28-0.13s-0.15-0.14-0.21-0.24s-0.08-0.22-0.08-0.37c0-0.17,0.04-0.38,0.13-0.61
			c0.08-0.22,0.13-0.4,0.17-0.55s0.06-0.27,0.06-0.37c-0.1,0.02-0.2,0.04-0.3,0.06s-0.21,0.03-0.3,0.03c-0.05,0-0.1-0.01-0.16-0.02
			s-0.11-0.03-0.16-0.06s-0.09-0.06-0.13-0.11S26.99,8.07,26.99,8s0.02-0.13,0.06-0.19s0.1-0.12,0.18-0.16s0.17-0.09,0.27-0.11
			s0.22-0.04,0.35-0.04c0.24,0,0.44,0.06,0.61,0.19c0.16-0.13,0.3-0.27,0.41-0.42s0.19-0.3,0.25-0.44s0.1-0.27,0.12-0.38
			s0.03-0.19,0.03-0.25c0-0.15-0.03-0.25-0.08-0.31s-0.12-0.09-0.2-0.09c-0.15,0-0.31,0.05-0.49,0.14s-0.37,0.23-0.56,0.39
			s-0.39,0.35-0.59,0.57s-0.4,0.44-0.59,0.68s-0.38,0.48-0.56,0.72s-0.35,0.47-0.5,0.68c-0.14,0.23-0.26,0.44-0.37,0.64
			s-0.2,0.36-0.27,0.51s-0.13,0.25-0.17,0.32s-0.06,0.1-0.07,0.08l-0.68-0.18c0.54-1.23,1.08-2.45,1.63-3.68s1.13-2.47,1.74-3.72
			c0.09-0.18,0.19-0.38,0.31-0.6s0.24-0.43,0.38-0.65s0.28-0.43,0.43-0.63s0.31-0.39,0.47-0.54s0.33-0.28,0.5-0.38S29.94,0,30.11,0
			c0.18,0,0.32,0.05,0.43,0.15s0.17,0.26,0.17,0.48c0,0.3-0.08,0.67-0.24,1.1s-0.4,0.89-0.72,1.37s-0.72,0.97-1.19,1.47
			s-1.03,0.95-1.66,1.38L26,7.94z M27.19,5.28c0.55-0.43,1.03-0.87,1.43-1.32s0.73-0.89,0.98-1.31s0.45-0.81,0.57-1.17
			s0.18-0.66,0.18-0.9c0-0.07-0.02-0.12-0.05-0.16s-0.09-0.06-0.17-0.06c-0.17,0-0.34,0.08-0.52,0.25S29.23,1.05,29,1.44
			s-0.48,0.89-0.78,1.52S27.59,4.36,27.19,5.28z M28.07,7.95c-0.02-0.05-0.06-0.09-0.11-0.13s-0.11-0.06-0.17-0.06
			c-0.13,0-0.25,0.03-0.35,0.08S27.28,7.95,27.28,8c0,0.04,0.02,0.06,0.06,0.07s0.08,0.02,0.12,0.02c0.12,0,0.23-0.01,0.33-0.04
			S27.99,7.99,28.07,7.95z"/>
		<path fill="#43893F" d="M34.69,7.72c-0.07-0.16-0.13-0.33-0.17-0.5s-0.06-0.35-0.06-0.54c0-0.24,0.02-0.45,0.06-0.61
			s0.1-0.3,0.16-0.4s0.13-0.18,0.21-0.22s0.15-0.07,0.22-0.07c0.06,0,0.12,0.01,0.17,0.04s0.1,0.07,0.14,0.13s0.07,0.14,0.1,0.23
			s0.04,0.21,0.04,0.36c0,0.33-0.06,0.67-0.19,1.01s-0.3,0.68-0.52,1s-0.47,0.63-0.75,0.92s-0.57,0.54-0.88,0.76
			c-0.08,0.06-0.18,0.12-0.28,0.19s-0.22,0.13-0.34,0.18s-0.25,0.1-0.38,0.14s-0.26,0.06-0.38,0.06c-0.31,0-0.55-0.12-0.75-0.35
			S30.8,9.49,30.8,9.08c0-0.19,0.03-0.4,0.08-0.62s0.13-0.44,0.23-0.67s0.21-0.46,0.33-0.69s0.26-0.45,0.41-0.67s0.29-0.41,0.45-0.6
			s0.31-0.35,0.46-0.49l0.3,0.2c-0.26,0.4-0.49,0.79-0.68,1.17s-0.35,0.73-0.48,1.06s-0.22,0.64-0.28,0.91s-0.09,0.51-0.09,0.71
			c0,0.23,0.03,0.4,0.09,0.5s0.15,0.15,0.26,0.15c0.11,0,0.26-0.04,0.45-0.12s0.42-0.21,0.67-0.39c0.32-0.23,0.63-0.5,0.93-0.81
			S34.48,8.07,34.69,7.72z M34.91,7.38c0.09-0.21,0.16-0.42,0.22-0.64s0.08-0.43,0.08-0.63c0-0.14-0.01-0.23-0.03-0.29
			s-0.04-0.09-0.05-0.1c0,0-0.02,0.01-0.05,0.04s-0.07,0.08-0.11,0.15s-0.07,0.17-0.1,0.29s-0.04,0.29-0.04,0.48
			c0,0.11,0.01,0.23,0.02,0.36S34.87,7.28,34.91,7.38z"/>
		<path fill="#43893F" d="M36.49,8.78c-0.01,0.05-0.02,0.11-0.02,0.16s-0.01,0.11-0.01,0.16c0,0.16,0.02,0.32,0.07,0.47
			s0.12,0.28,0.21,0.39s0.21,0.2,0.35,0.26s0.3,0.1,0.48,0.1c0.6,0,1.17-0.2,1.73-0.61s1.11-1.05,1.66-1.93l0.23,0.21
			c-0.3,0.5-0.61,0.92-0.92,1.27s-0.62,0.62-0.93,0.84s-0.61,0.37-0.91,0.46s-0.58,0.14-0.85,0.14c-0.2,0-0.4-0.03-0.62-0.08
			s-0.42-0.15-0.6-0.27s-0.34-0.3-0.46-0.51s-0.18-0.48-0.18-0.8c0-0.34,0.06-0.67,0.17-0.99s0.27-0.61,0.45-0.89
			s0.4-0.52,0.64-0.75S37.49,6,37.74,5.84s0.49-0.28,0.73-0.37s0.45-0.13,0.63-0.13c0.12,0,0.24,0.02,0.36,0.05s0.23,0.09,0.33,0.17
			s0.18,0.18,0.24,0.31s0.09,0.28,0.09,0.46c0,0.24-0.06,0.47-0.17,0.68s-0.26,0.41-0.45,0.59s-0.4,0.34-0.65,0.49
			s-0.5,0.27-0.77,0.37s-0.54,0.18-0.81,0.24S36.74,8.77,36.49,8.78z M36.54,8.48c0.31-0.03,0.59-0.1,0.86-0.19s0.52-0.21,0.74-0.35
			s0.42-0.29,0.6-0.45s0.32-0.33,0.44-0.5s0.21-0.33,0.27-0.49s0.1-0.29,0.1-0.42s-0.03-0.22-0.1-0.29s-0.14-0.11-0.24-0.11
			c-0.2,0-0.43,0.07-0.68,0.22s-0.5,0.34-0.75,0.59s-0.49,0.55-0.71,0.89S36.68,8.09,36.54,8.48z M39.99,3.84
			c0,0.13-0.05,0.25-0.14,0.35s-0.21,0.15-0.36,0.15c-0.13,0-0.25-0.05-0.35-0.15S39,3.97,39,3.84c0-0.14,0.05-0.26,0.15-0.36
			s0.21-0.14,0.35-0.14c0.14,0,0.26,0.05,0.36,0.14S39.99,3.7,39.99,3.84z"/>
		<path fill="#43893F" d="M43.35,4.38l-1.55,3.12c0.27-0.35,0.56-0.68,0.86-0.98s0.61-0.55,0.92-0.74c0.23-0.14,0.44-0.23,0.62-0.28
			s0.35-0.08,0.51-0.08c0.15,0,0.28,0.02,0.38,0.08s0.18,0.12,0.24,0.2s0.1,0.17,0.12,0.27s0.03,0.19,0.03,0.29
			c0,0.21-0.04,0.43-0.11,0.64S45.21,7.29,45.1,7.5s-0.22,0.41-0.35,0.6S44.5,8.5,44.4,8.69s-0.2,0.38-0.27,0.56
			s-0.11,0.36-0.11,0.53c0,0.08,0.01,0.15,0.03,0.2s0.05,0.09,0.08,0.12s0.07,0.05,0.11,0.06s0.08,0.01,0.12,0.01
			c0.09,0,0.19-0.04,0.3-0.12s0.24-0.18,0.37-0.31s0.27-0.28,0.41-0.44s0.27-0.34,0.4-0.51s0.25-0.35,0.37-0.52s0.21-0.33,0.3-0.47
			l0.25,0.19c-0.05,0.1-0.12,0.23-0.22,0.4S46.34,8.71,46.2,8.9s-0.28,0.38-0.43,0.57s-0.32,0.36-0.5,0.52s-0.35,0.28-0.53,0.38
			s-0.36,0.15-0.53,0.15c-0.12,0-0.23-0.02-0.34-0.05s-0.21-0.09-0.29-0.17s-0.15-0.17-0.2-0.29s-0.08-0.26-0.08-0.42
			c0-0.2,0.04-0.42,0.12-0.68s0.23-0.55,0.46-0.88c0.19-0.27,0.35-0.49,0.49-0.67s0.25-0.34,0.34-0.47s0.15-0.26,0.19-0.37
			s0.06-0.24,0.06-0.37c0-0.12-0.03-0.21-0.1-0.27s-0.15-0.1-0.23-0.1c-0.23,0-0.47,0.07-0.72,0.2s-0.49,0.31-0.73,0.52
			s-0.48,0.46-0.71,0.74s-0.45,0.56-0.66,0.85s-0.4,0.57-0.57,0.85s-0.33,0.53-0.45,0.75s-0.23,0.4-0.3,0.53s-0.11,0.2-0.11,0.21
			c-0.19,0.39-0.38,0.77-0.56,1.14s-0.35,0.71-0.52,1.04s-0.31,0.63-0.45,0.9s-0.26,0.51-0.36,0.71s-0.18,0.36-0.24,0.47
			s-0.09,0.17-0.09,0.18l-0.75-0.42c0.37-0.71,0.71-1.34,1.01-1.91s0.59-1.11,0.86-1.61s0.54-0.99,0.81-1.47s0.54-0.97,0.84-1.49
			s0.62-1.07,0.97-1.67s0.75-1.27,1.19-2.01L43.35,4.38z"/>
		<path fill="#43893F" d="M48.31,5.79c-0.06,0.12-0.14,0.27-0.25,0.47s-0.22,0.41-0.35,0.64s-0.25,0.47-0.38,0.72
			s-0.24,0.5-0.35,0.74s-0.19,0.46-0.25,0.67s-0.1,0.39-0.1,0.53c0,0.13,0.03,0.22,0.08,0.27s0.13,0.07,0.23,0.07
			c0.19,0,0.37-0.06,0.55-0.18s0.35-0.28,0.53-0.48s0.35-0.42,0.52-0.68s0.34-0.51,0.51-0.77l0.25,0.19
			c-0.13,0.24-0.28,0.49-0.45,0.76s-0.35,0.52-0.56,0.75s-0.43,0.42-0.68,0.57s-0.52,0.23-0.81,0.23c-0.27,0-0.48-0.08-0.63-0.25
			s-0.22-0.38-0.22-0.64c0-0.31,0.07-0.62,0.21-0.96s0.32-0.66,0.53-0.99s0.44-0.64,0.69-0.94s0.48-0.57,0.69-0.82L48.31,5.79z
			 M49.59,4.27c0,0.09-0.02,0.19-0.07,0.28s-0.1,0.19-0.17,0.26s-0.15,0.14-0.24,0.19s-0.17,0.08-0.26,0.08
			c-0.08,0-0.14-0.03-0.18-0.09s-0.06-0.13-0.06-0.21c0-0.07,0.01-0.16,0.04-0.26s0.07-0.19,0.12-0.28s0.12-0.17,0.2-0.23
			s0.17-0.1,0.27-0.1c0.1,0,0.18,0.04,0.25,0.11S49.59,4.19,49.59,4.27z"/>
		<path fill="#43893F" d="M51.17,5.1c-0.04,0.05-0.07,0.1-0.11,0.16S51,5.4,50.97,5.48s-0.04,0.18-0.04,0.29
			c0,0.1,0.02,0.23,0.07,0.39s0.1,0.35,0.15,0.56s0.11,0.44,0.15,0.69s0.07,0.5,0.07,0.77c0,0.39-0.05,0.73-0.16,1.03
			s-0.24,0.55-0.42,0.76c0.36-0.19,0.7-0.47,1.05-0.82s0.69-0.81,1.03-1.36l0.23,0.21c-0.2,0.32-0.42,0.64-0.67,0.96
			s-0.52,0.6-0.82,0.85s-0.62,0.46-0.96,0.62s-0.7,0.24-1.09,0.24c-0.34,0-0.63-0.08-0.86-0.24s-0.38-0.4-0.43-0.73l0.25-0.05
			c0,0.03,0.01,0.07,0.04,0.13s0.06,0.12,0.12,0.18s0.13,0.11,0.22,0.16s0.21,0.07,0.35,0.07c0.18,0,0.34-0.04,0.49-0.13
			s0.26-0.19,0.37-0.33s0.19-0.29,0.27-0.47s0.13-0.36,0.17-0.54s0.07-0.37,0.09-0.55s0.03-0.34,0.03-0.49s-0.01-0.31-0.02-0.49
			s-0.02-0.35-0.04-0.51s-0.03-0.3-0.04-0.42s-0.02-0.2-0.02-0.24V6.01c-0.06,0.06-0.13,0.16-0.21,0.28s-0.17,0.26-0.26,0.4
			s-0.19,0.29-0.28,0.44s-0.18,0.29-0.25,0.41s-0.14,0.22-0.18,0.3s-0.07,0.12-0.07,0.13l-0.25-0.19c0,0,0.06-0.1,0.17-0.29
			s0.25-0.43,0.43-0.73s0.38-0.62,0.61-0.98s0.46-0.71,0.7-1.04l0.27,0.23C51.23,5.01,51.2,5.06,51.17,5.1z"/>
		<path fill="#43893F" d="M59.38,4.38l-1.55,3.12c0.27-0.35,0.56-0.68,0.86-0.98s0.61-0.55,0.92-0.74c0.23-0.14,0.44-0.23,0.62-0.28
			s0.35-0.08,0.51-0.08c0.15,0,0.28,0.02,0.38,0.08s0.18,0.12,0.24,0.2s0.1,0.17,0.12,0.27s0.03,0.19,0.03,0.29
			c0,0.21-0.04,0.43-0.11,0.64s-0.16,0.42-0.27,0.62s-0.22,0.41-0.35,0.6s-0.25,0.39-0.35,0.58s-0.2,0.38-0.27,0.56
			s-0.11,0.36-0.11,0.53c0,0.08,0.01,0.15,0.03,0.2s0.05,0.09,0.08,0.12s0.07,0.05,0.11,0.06s0.08,0.01,0.12,0.01
			c0.09,0,0.19-0.04,0.3-0.12s0.24-0.18,0.37-0.31s0.27-0.28,0.41-0.44s0.27-0.34,0.4-0.51s0.25-0.35,0.37-0.52s0.21-0.33,0.3-0.47
			l0.25,0.19c-0.05,0.1-0.12,0.23-0.22,0.4s-0.21,0.34-0.35,0.53s-0.28,0.38-0.43,0.57s-0.32,0.36-0.5,0.52s-0.35,0.28-0.53,0.38
			s-0.36,0.15-0.53,0.15c-0.12,0-0.23-0.02-0.34-0.05s-0.21-0.09-0.29-0.17s-0.15-0.17-0.2-0.29s-0.08-0.26-0.08-0.42
			c0-0.2,0.04-0.42,0.12-0.68s0.23-0.55,0.46-0.88c0.19-0.27,0.35-0.49,0.49-0.67s0.25-0.34,0.34-0.47s0.15-0.26,0.19-0.37
			S61,6.28,61,6.14c0-0.12-0.03-0.21-0.1-0.27s-0.15-0.1-0.23-0.1c-0.23,0-0.47,0.07-0.72,0.2s-0.49,0.31-0.73,0.52
			s-0.48,0.46-0.71,0.74s-0.45,0.56-0.66,0.85s-0.4,0.57-0.57,0.85s-0.33,0.53-0.45,0.75s-0.23,0.4-0.3,0.53s-0.11,0.2-0.11,0.21
			c-0.19,0.39-0.38,0.77-0.56,1.14s-0.35,0.71-0.52,1.04s-0.31,0.63-0.45,0.9s-0.26,0.51-0.36,0.71s-0.18,0.36-0.24,0.47
			s-0.09,0.17-0.09,0.18l-0.75-0.42c0.37-0.71,0.71-1.34,1.01-1.91s0.59-1.11,0.86-1.61s0.54-0.99,0.81-1.47s0.54-0.97,0.84-1.49
			s0.62-1.07,0.97-1.67s0.75-1.27,1.19-2.01L59.38,4.38z"/>
		<path fill="#43893F" d="M66.86,7.98c-0.07,0.1-0.15,0.24-0.24,0.41s-0.2,0.36-0.32,0.55s-0.26,0.4-0.41,0.6s-0.31,0.39-0.49,0.55
			s-0.37,0.3-0.57,0.4s-0.42,0.16-0.66,0.16c-0.13,0-0.25-0.02-0.36-0.06s-0.21-0.1-0.3-0.18s-0.15-0.18-0.21-0.3
			s-0.08-0.26-0.08-0.43c0-0.22,0.04-0.46,0.13-0.7s0.19-0.48,0.31-0.71s0.24-0.44,0.36-0.63s0.21-0.34,0.26-0.45
			s0.08-0.21,0.08-0.29c0-0.06-0.02-0.11-0.06-0.16s-0.09-0.09-0.14-0.13s-0.12-0.09-0.18-0.14s-0.11-0.11-0.15-0.17
			c-0.11,0.18-0.23,0.37-0.35,0.55c-0.1,0.16-0.22,0.34-0.34,0.54s-0.24,0.39-0.36,0.58l-0.25-0.19l1.46-2.29l0.2,0.1
			c-0.01,0.03-0.02,0.07-0.04,0.13s-0.03,0.12-0.03,0.19c0,0.05,0.01,0.1,0.02,0.15s0.05,0.09,0.1,0.13
			c0.18,0.16,0.33,0.29,0.43,0.38s0.18,0.16,0.23,0.21s0.08,0.1,0.09,0.13S65.02,7,65.02,7.05S65.01,7.18,65,7.25
			s-0.05,0.17-0.09,0.28s-0.1,0.24-0.18,0.39s-0.17,0.32-0.28,0.52c-0.07,0.12-0.14,0.24-0.2,0.36s-0.13,0.24-0.18,0.37
			s-0.09,0.25-0.13,0.37s-0.05,0.24-0.05,0.36c0,0.09,0.01,0.16,0.04,0.21s0.06,0.09,0.1,0.12s0.09,0.05,0.13,0.05
			s0.09,0.01,0.14,0.01c0.15,0,0.3-0.04,0.45-0.13s0.29-0.2,0.44-0.35s0.28-0.3,0.42-0.48s0.26-0.36,0.39-0.55s0.24-0.37,0.34-0.54
			s0.2-0.32,0.28-0.45L66.86,7.98z"/>
		<path fill="#43893F" d="M68.4,5.79c-0.06,0.12-0.14,0.27-0.25,0.47s-0.22,0.41-0.35,0.64s-0.25,0.47-0.38,0.72
			s-0.24,0.5-0.35,0.74s-0.19,0.46-0.25,0.67s-0.1,0.39-0.1,0.53c0,0.13,0.03,0.22,0.08,0.27s0.13,0.07,0.23,0.07
			c0.19,0,0.37-0.06,0.55-0.18s0.35-0.28,0.53-0.48s0.35-0.42,0.52-0.68s0.34-0.51,0.51-0.77l0.25,0.19
			c-0.13,0.24-0.28,0.49-0.45,0.76s-0.35,0.52-0.56,0.75s-0.43,0.42-0.68,0.57s-0.52,0.23-0.81,0.23c-0.27,0-0.48-0.08-0.63-0.25
			s-0.22-0.38-0.22-0.64c0-0.31,0.07-0.62,0.21-0.96s0.32-0.66,0.53-0.99s0.44-0.64,0.69-0.94s0.48-0.57,0.69-0.82L68.4,5.79z
			 M69.68,4.27c0,0.09-0.02,0.19-0.07,0.28s-0.1,0.19-0.17,0.26s-0.15,0.14-0.24,0.19s-0.17,0.08-0.26,0.08
			c-0.08,0-0.14-0.03-0.18-0.09S68.7,4.87,68.7,4.79c0-0.07,0.01-0.16,0.04-0.26s0.07-0.19,0.12-0.28s0.12-0.17,0.2-0.23
			s0.17-0.1,0.27-0.1c0.1,0,0.18,0.04,0.25,0.11S69.68,4.19,69.68,4.27z"/>
		<path fill="#43893F" d="M69.67,8.78c-0.01,0.05-0.02,0.11-0.02,0.16s-0.01,0.11-0.01,0.16c0,0.16,0.02,0.32,0.07,0.47
			s0.12,0.28,0.21,0.39s0.21,0.2,0.35,0.26s0.3,0.1,0.48,0.1c0.6,0,1.17-0.2,1.73-0.61s1.11-1.05,1.66-1.93l0.23,0.21
			c-0.3,0.5-0.61,0.92-0.92,1.27s-0.62,0.62-0.93,0.84s-0.61,0.37-0.91,0.46s-0.58,0.14-0.85,0.14c-0.2,0-0.4-0.03-0.62-0.08
			s-0.42-0.15-0.6-0.27s-0.34-0.3-0.46-0.51s-0.18-0.48-0.18-0.8c0-0.34,0.06-0.67,0.17-0.99s0.27-0.61,0.45-0.89
			s0.4-0.52,0.64-0.75S70.67,6,70.92,5.84s0.49-0.28,0.73-0.37s0.45-0.13,0.63-0.13c0.12,0,0.24,0.02,0.36,0.05s0.23,0.09,0.33,0.17
			s0.18,0.18,0.24,0.31s0.09,0.28,0.09,0.46c0,0.24-0.06,0.47-0.17,0.68s-0.26,0.41-0.45,0.59s-0.4,0.34-0.65,0.49
			s-0.5,0.27-0.77,0.37s-0.54,0.18-0.81,0.24S69.92,8.77,69.67,8.78z M69.73,8.48c0.31-0.03,0.59-0.1,0.86-0.19s0.52-0.21,0.74-0.35
			s0.42-0.29,0.6-0.45s0.32-0.33,0.44-0.5s0.21-0.33,0.27-0.49s0.1-0.29,0.1-0.42s-0.03-0.22-0.1-0.29s-0.14-0.11-0.24-0.11
			c-0.2,0-0.43,0.07-0.68,0.22s-0.5,0.34-0.75,0.59s-0.49,0.55-0.71,0.89S69.86,8.09,69.73,8.48z"/>
		<path fill="#43893F" d="M85.52,5.06c-0.21,0.36-0.45,0.73-0.72,1.09s-0.57,0.69-0.91,0.99s-0.71,0.53-1.11,0.72
			s-0.85,0.28-1.33,0.28c-0.39,0-0.76-0.06-1.1-0.18s-0.64-0.3-0.89-0.54s-0.45-0.53-0.59-0.87s-0.22-0.74-0.22-1.19
			c0-0.55,0.09-1.06,0.26-1.52s0.4-0.88,0.69-1.25s0.63-0.7,1.02-0.98s0.8-0.52,1.24-0.7s0.89-0.33,1.35-0.42s0.91-0.14,1.35-0.13
			c0.47,0,0.94,0.07,1.39,0.21s0.86,0.33,1.21,0.6s0.64,0.61,0.85,1.03s0.32,0.9,0.32,1.47c0,0.39-0.07,0.83-0.21,1.32
			s-0.37,1.02-0.71,1.61c-0.39,0.68-0.73,1.27-1.02,1.75s-0.53,0.88-0.71,1.21s-0.33,0.59-0.42,0.78s-0.14,0.35-0.14,0.46
			c0,0.11,0.05,0.2,0.15,0.26s0.24,0.1,0.41,0.1c0.24,0,0.53-0.06,0.85-0.19s0.69-0.32,1.09-0.57c0.36-0.23,0.72-0.49,1.07-0.79
			s0.69-0.61,1.03-0.95s0.66-0.68,0.97-1.04s0.61-0.72,0.89-1.08s0.54-0.71,0.77-1.05S92.8,4.8,92.99,4.5
			c-0.09-0.28-0.16-0.55-0.2-0.81s-0.06-0.5-0.06-0.73c0-0.28,0.02-0.53,0.08-0.74s0.12-0.4,0.2-0.55s0.18-0.26,0.3-0.34
			s0.24-0.12,0.37-0.12c0.11,0,0.21,0.03,0.3,0.08s0.15,0.12,0.21,0.2s0.1,0.18,0.12,0.28s0.04,0.21,0.04,0.31
			c0,0.16-0.03,0.35-0.08,0.58s-0.15,0.5-0.3,0.81c-0.12,0.26-0.3,0.58-0.52,0.96s-0.49,0.78-0.79,1.21s-0.64,0.89-1,1.35
			s-0.76,0.92-1.17,1.36s-0.85,0.86-1.3,1.26s-0.9,0.74-1.36,1.04c-0.49,0.31-0.9,0.53-1.25,0.65s-0.64,0.18-0.88,0.18
			c-0.21,0-0.39-0.03-0.54-0.1s-0.26-0.15-0.35-0.26s-0.15-0.23-0.18-0.36s-0.05-0.27-0.05-0.4c0-0.16,0.02-0.34,0.08-0.52
			s0.13-0.36,0.23-0.53c0.12-0.21,0.28-0.46,0.46-0.75s0.39-0.62,0.6-0.97s0.42-0.72,0.64-1.11s0.41-0.78,0.58-1.17
			s0.31-0.77,0.42-1.15s0.16-0.72,0.16-1.04c0-0.31-0.07-0.61-0.21-0.9s-0.34-0.55-0.62-0.78s-0.6-0.41-1-0.55S85.06,0.7,84.54,0.7
			c-0.46,0-0.91,0.06-1.34,0.17s-0.83,0.27-1.21,0.47s-0.72,0.44-1.04,0.72s-0.58,0.59-0.8,0.92s-0.4,0.69-0.52,1.07
			s-0.18,0.77-0.18,1.17c0,0.38,0.06,0.72,0.18,1.02s0.28,0.54,0.49,0.73s0.44,0.34,0.71,0.44s0.55,0.15,0.85,0.15
			c0.32,0,0.64-0.06,0.96-0.18s0.64-0.3,0.95-0.53s0.6-0.51,0.89-0.84s0.54-0.7,0.79-1.11L85.52,5.06z M93.24,4.08
			c0.15-0.26,0.28-0.49,0.38-0.7S93.79,3,93.84,2.84s0.09-0.3,0.11-0.42s0.03-0.23,0.03-0.32c0-0.05,0-0.11-0.01-0.17
			s-0.03-0.12-0.05-0.17s-0.06-0.09-0.1-0.13s-0.1-0.05-0.17-0.05c-0.08,0-0.16,0.04-0.23,0.11s-0.13,0.18-0.18,0.3
			s-0.09,0.27-0.12,0.44s-0.04,0.35-0.04,0.54c0,0.16,0.01,0.34,0.03,0.53S93.18,3.88,93.24,4.08z"/>
		<path fill="#43893F" d="M93.5,8.78c-0.01,0.05-0.02,0.11-0.02,0.16s-0.01,0.11-0.01,0.16c0,0.16,0.02,0.32,0.07,0.47
			s0.12,0.28,0.21,0.39s0.21,0.2,0.35,0.26s0.3,0.1,0.48,0.1c0.6,0,1.17-0.2,1.73-0.61s1.11-1.05,1.66-1.93l0.23,0.21
			c-0.3,0.5-0.61,0.92-0.92,1.27s-0.62,0.62-0.93,0.84s-0.61,0.37-0.91,0.46s-0.58,0.14-0.85,0.14c-0.2,0-0.4-0.03-0.62-0.08
			s-0.42-0.15-0.6-0.27s-0.34-0.3-0.46-0.51s-0.18-0.48-0.18-0.8c0-0.34,0.06-0.67,0.17-0.99s0.27-0.61,0.45-0.89
			s0.4-0.52,0.64-0.75S94.5,6,94.75,5.84s0.49-0.28,0.73-0.37s0.45-0.13,0.63-0.13c0.12,0,0.24,0.02,0.36,0.05s0.23,0.09,0.33,0.17
			s0.18,0.18,0.24,0.31s0.09,0.28,0.09,0.46c0,0.24-0.06,0.47-0.17,0.68s-0.26,0.41-0.45,0.59s-0.4,0.34-0.65,0.49
			s-0.5,0.27-0.77,0.37s-0.54,0.18-0.81,0.24S93.75,8.77,93.5,8.78z M93.56,8.48c0.31-0.03,0.59-0.1,0.86-0.19s0.52-0.21,0.74-0.35
			s0.42-0.29,0.6-0.45s0.32-0.33,0.44-0.5s0.21-0.33,0.27-0.49s0.1-0.29,0.1-0.42s-0.03-0.22-0.1-0.29s-0.14-0.11-0.24-0.11
			c-0.2,0-0.43,0.07-0.68,0.22s-0.5,0.34-0.75,0.59s-0.49,0.55-0.71,0.89S93.69,8.09,93.56,8.48z"/>
		<path fill="#43893F" d="M102.29,7.98c-0.07,0.1-0.15,0.24-0.24,0.41s-0.2,0.36-0.32,0.55s-0.26,0.4-0.41,0.6s-0.31,0.39-0.49,0.55
			s-0.37,0.3-0.57,0.4s-0.42,0.16-0.66,0.16c-0.13,0-0.25-0.02-0.36-0.06s-0.21-0.1-0.3-0.18s-0.15-0.18-0.21-0.3
			s-0.08-0.26-0.08-0.43c0-0.22,0.04-0.46,0.13-0.7s0.19-0.48,0.31-0.71s0.24-0.44,0.36-0.63s0.21-0.34,0.26-0.45
			S99.8,6.99,99.8,6.9c0-0.06-0.02-0.11-0.06-0.16s-0.09-0.09-0.14-0.13s-0.12-0.09-0.18-0.14s-0.11-0.11-0.15-0.17
			c-0.11,0.18-0.23,0.37-0.35,0.55c-0.1,0.16-0.22,0.34-0.34,0.54s-0.24,0.39-0.36,0.58l-0.25-0.19l1.46-2.29l0.2,0.1
			c-0.01,0.03-0.02,0.07-0.04,0.13s-0.03,0.12-0.03,0.19c0,0.05,0.01,0.1,0.02,0.15s0.05,0.09,0.1,0.13
			c0.18,0.16,0.33,0.29,0.43,0.38s0.18,0.16,0.23,0.21s0.08,0.1,0.09,0.13s0.02,0.08,0.02,0.13s-0.01,0.12-0.03,0.2
			s-0.05,0.17-0.09,0.28s-0.1,0.24-0.18,0.39s-0.17,0.32-0.28,0.52c-0.07,0.12-0.14,0.24-0.2,0.36s-0.13,0.24-0.18,0.37
			s-0.09,0.25-0.13,0.37s-0.05,0.24-0.05,0.36c0,0.09,0.01,0.16,0.04,0.21s0.06,0.09,0.1,0.12s0.09,0.05,0.13,0.05
			s0.09,0.01,0.14,0.01c0.15,0,0.3-0.04,0.45-0.13s0.29-0.2,0.44-0.35s0.28-0.3,0.42-0.48s0.26-0.36,0.39-0.55s0.24-0.37,0.34-0.54
			s0.2-0.32,0.28-0.45L102.29,7.98z"/>
		<path fill="#43893F" d="M102.85,7.94c0.24-0.33,0.49-0.64,0.76-0.95s0.54-0.57,0.81-0.81s0.55-0.42,0.83-0.56s0.55-0.21,0.81-0.21
			c0.16,0,0.3,0.02,0.4,0.08s0.19,0.11,0.25,0.19s0.1,0.17,0.13,0.26s0.04,0.19,0.04,0.29c0,0.14-0.03,0.28-0.08,0.44
			s-0.13,0.32-0.24,0.48s-0.24,0.32-0.41,0.46s-0.36,0.28-0.59,0.4c0.05,0.12,0.08,0.26,0.08,0.43c0,0.1-0.01,0.21-0.04,0.32
			s-0.06,0.21-0.09,0.32s-0.06,0.21-0.09,0.32s-0.04,0.22-0.04,0.32c0,0.05,0,0.11,0.01,0.16s0.02,0.1,0.04,0.14s0.05,0.07,0.1,0.1
			s0.1,0.04,0.18,0.04c0.09,0,0.2-0.04,0.31-0.11s0.24-0.17,0.38-0.3s0.27-0.27,0.41-0.43s0.27-0.33,0.41-0.51s0.26-0.35,0.38-0.53
			s0.23-0.34,0.33-0.5l0.25,0.19c-0.23,0.35-0.46,0.68-0.68,0.99s-0.44,0.59-0.66,0.83s-0.45,0.43-0.67,0.57s-0.46,0.21-0.7,0.21
			c-0.1,0-0.19-0.01-0.3-0.04s-0.2-0.07-0.28-0.13s-0.15-0.14-0.21-0.24s-0.08-0.22-0.08-0.37c0-0.17,0.04-0.38,0.13-0.61
			c0.08-0.22,0.13-0.4,0.17-0.55s0.06-0.27,0.06-0.37c-0.1,0.02-0.2,0.04-0.3,0.06s-0.21,0.03-0.3,0.03c-0.05,0-0.1-0.01-0.16-0.02
			s-0.11-0.03-0.16-0.06s-0.09-0.06-0.13-0.11s-0.05-0.1-0.05-0.17s0.02-0.13,0.06-0.19s0.1-0.12,0.18-0.16s0.17-0.09,0.27-0.11
			s0.22-0.04,0.35-0.04c0.24,0,0.44,0.06,0.61,0.19c0.16-0.13,0.3-0.27,0.41-0.42s0.19-0.3,0.25-0.44s0.1-0.27,0.12-0.38
			s0.03-0.19,0.03-0.25c0-0.15-0.03-0.25-0.08-0.31s-0.12-0.09-0.2-0.09c-0.15,0-0.31,0.05-0.49,0.14s-0.37,0.23-0.56,0.39
			s-0.39,0.35-0.59,0.57s-0.4,0.44-0.59,0.68s-0.38,0.48-0.56,0.72s-0.35,0.47-0.5,0.68c-0.14,0.23-0.26,0.44-0.37,0.64
			s-0.2,0.36-0.27,0.51s-0.13,0.25-0.17,0.32s-0.06,0.1-0.07,0.08L101,10.34c0.54-1.23,1.08-2.45,1.63-3.68s1.13-2.47,1.74-3.72
			c0.09-0.18,0.19-0.38,0.31-0.6s0.24-0.43,0.38-0.65s0.28-0.43,0.43-0.63s0.31-0.39,0.47-0.54s0.33-0.28,0.5-0.38S106.8,0,106.97,0
			c0.18,0,0.32,0.05,0.43,0.15s0.17,0.26,0.17,0.48c0,0.3-0.08,0.67-0.24,1.1s-0.4,0.89-0.72,1.37s-0.72,0.97-1.19,1.47
			s-1.03,0.95-1.66,1.38L102.85,7.94z M104.05,5.28c0.55-0.43,1.03-0.87,1.43-1.32s0.73-0.89,0.98-1.31s0.45-0.81,0.57-1.17
			s0.18-0.66,0.18-0.9c0-0.07-0.02-0.12-0.05-0.16s-0.09-0.06-0.17-0.06c-0.17,0-0.34,0.08-0.52,0.25s-0.38,0.44-0.6,0.82
			s-0.48,0.89-0.78,1.52S104.45,4.36,104.05,5.28z M104.92,7.95c-0.02-0.05-0.06-0.09-0.11-0.13s-0.11-0.06-0.17-0.06
			c-0.13,0-0.25,0.03-0.35,0.08s-0.15,0.11-0.15,0.16c0,0.04,0.02,0.06,0.06,0.07s0.08,0.02,0.12,0.02c0.12,0,0.23-0.01,0.33-0.04
			S104.84,7.99,104.92,7.95z"/>
		<path fill="#43893F" d="M113.64,6.79c0,0.2-0.03,0.4-0.1,0.6s-0.15,0.41-0.26,0.61s-0.22,0.4-0.33,0.6s-0.23,0.39-0.33,0.57
			s-0.19,0.36-0.26,0.52s-0.1,0.32-0.1,0.45c0,0.1,0.02,0.18,0.07,0.21s0.1,0.05,0.15,0.05c0.17,0,0.37-0.09,0.58-0.26
			s0.43-0.39,0.65-0.65s0.44-0.54,0.66-0.85s0.42-0.59,0.59-0.87l0.25,0.19c-0.04,0.05-0.1,0.16-0.2,0.32s-0.21,0.35-0.36,0.55
			s-0.3,0.42-0.48,0.65s-0.36,0.43-0.56,0.62s-0.41,0.35-0.62,0.47s-0.42,0.18-0.64,0.18c-0.12,0-0.23-0.02-0.33-0.06
			s-0.19-0.1-0.26-0.17s-0.13-0.16-0.17-0.26s-0.06-0.2-0.06-0.31c0-0.18,0.04-0.37,0.12-0.58s0.18-0.42,0.3-0.64
			s0.25-0.44,0.39-0.66s0.27-0.43,0.39-0.63s0.22-0.39,0.3-0.56s0.12-0.32,0.12-0.44c0-0.14-0.04-0.26-0.11-0.36
			s-0.18-0.14-0.32-0.14c-0.15,0-0.31,0.06-0.51,0.18s-0.41,0.3-0.64,0.53s-0.5,0.52-0.78,0.86s-0.58,0.73-0.91,1.16
			c-0.19,0.25-0.37,0.49-0.55,0.72c-0.08,0.1-0.15,0.2-0.23,0.31s-0.15,0.21-0.23,0.31s-0.15,0.2-0.22,0.29s-0.13,0.17-0.18,0.24
			l-0.6-0.25l0.8-1.1c0.11-0.15,0.23-0.32,0.35-0.5s0.24-0.36,0.35-0.55s0.23-0.38,0.33-0.57s0.2-0.38,0.29-0.56
			c0.13-0.27,0.22-0.5,0.27-0.68s0.08-0.32,0.08-0.43c0-0.12-0.02-0.2-0.07-0.24s-0.11-0.06-0.19-0.06c-0.09,0-0.19,0.04-0.3,0.13
			s-0.23,0.2-0.35,0.34s-0.24,0.3-0.36,0.47s-0.24,0.35-0.35,0.52s-0.21,0.34-0.31,0.49s-0.18,0.28-0.24,0.38l-0.25-0.19
			c0.23-0.36,0.44-0.7,0.63-1s0.37-0.56,0.55-0.78s0.35-0.39,0.51-0.51s0.34-0.18,0.53-0.18c0.1,0,0.2,0.02,0.29,0.06
			s0.18,0.1,0.25,0.18s0.13,0.18,0.17,0.29s0.06,0.25,0.06,0.4c0,0.12-0.01,0.24-0.04,0.37c0.2-0.2,0.39-0.36,0.56-0.49
			s0.33-0.23,0.48-0.3s0.28-0.13,0.4-0.16s0.23-0.05,0.33-0.05c0.09,0,0.19,0.02,0.3,0.05s0.22,0.09,0.32,0.18s0.19,0.21,0.26,0.36
			S113.64,6.55,113.64,6.79z"/>
		<path fill="#43893F" d="M115.47,8.78c-0.01,0.05-0.02,0.11-0.02,0.16s-0.01,0.11-0.01,0.16c0,0.16,0.02,0.32,0.07,0.47
			s0.12,0.28,0.21,0.39s0.21,0.2,0.35,0.26s0.3,0.1,0.48,0.1c0.6,0,1.17-0.2,1.73-0.61s1.11-1.05,1.66-1.93l0.23,0.21
			c-0.3,0.5-0.61,0.92-0.92,1.27s-0.62,0.62-0.93,0.84s-0.61,0.37-0.91,0.46s-0.58,0.14-0.85,0.14c-0.2,0-0.4-0.03-0.62-0.08
			s-0.42-0.15-0.6-0.27s-0.34-0.3-0.46-0.51s-0.18-0.48-0.18-0.8c0-0.34,0.06-0.67,0.17-0.99s0.27-0.61,0.45-0.89
			s0.4-0.52,0.64-0.75s0.49-0.42,0.73-0.58s0.49-0.28,0.73-0.37s0.45-0.13,0.63-0.13c0.12,0,0.24,0.02,0.36,0.05
			s0.23,0.09,0.33,0.17s0.18,0.18,0.24,0.31s0.09,0.28,0.09,0.46c0,0.24-0.06,0.47-0.17,0.68s-0.26,0.41-0.45,0.59
			s-0.4,0.34-0.65,0.49s-0.5,0.27-0.77,0.37s-0.54,0.18-0.81,0.24S115.72,8.77,115.47,8.78z M115.53,8.48
			c0.31-0.03,0.59-0.1,0.86-0.19s0.52-0.21,0.74-0.35s0.42-0.29,0.6-0.45s0.32-0.33,0.44-0.5s0.21-0.33,0.27-0.49s0.1-0.29,0.1-0.42
			s-0.03-0.22-0.1-0.29s-0.14-0.11-0.24-0.11c-0.2,0-0.43,0.07-0.68,0.22s-0.5,0.34-0.75,0.59s-0.49,0.55-0.71,0.89
			S115.66,8.09,115.53,8.48z M118.97,3.84c0,0.13-0.05,0.25-0.14,0.35s-0.21,0.15-0.36,0.15c-0.13,0-0.25-0.05-0.35-0.15
			s-0.15-0.21-0.15-0.35c0-0.14,0.05-0.26,0.15-0.36s0.21-0.14,0.35-0.14c0.14,0,0.26,0.05,0.36,0.14S118.97,3.7,118.97,3.84z"/>
		<path fill="#43893F" d="M122.05,5.1c-0.04,0.05-0.07,0.1-0.11,0.16s-0.06,0.13-0.09,0.22s-0.04,0.18-0.04,0.29
			c0,0.1,0.02,0.23,0.07,0.39s0.1,0.35,0.15,0.56s0.11,0.44,0.15,0.69s0.07,0.5,0.07,0.77c0,0.39-0.05,0.73-0.16,1.03
			s-0.24,0.55-0.42,0.76c0.36-0.19,0.7-0.47,1.05-0.82s0.69-0.81,1.03-1.36L124,7.99c-0.2,0.32-0.42,0.64-0.67,0.96
			s-0.52,0.6-0.82,0.85s-0.62,0.46-0.96,0.62s-0.7,0.24-1.09,0.24c-0.34,0-0.63-0.08-0.86-0.24s-0.38-0.4-0.43-0.73l0.25-0.05
			c0,0.03,0.01,0.07,0.04,0.13s0.06,0.12,0.12,0.18s0.13,0.11,0.22,0.16s0.21,0.07,0.35,0.07c0.18,0,0.34-0.04,0.49-0.13
			s0.26-0.19,0.37-0.33s0.19-0.29,0.27-0.47s0.13-0.36,0.17-0.54s0.07-0.37,0.09-0.55s0.03-0.34,0.03-0.49s-0.01-0.31-0.02-0.49
			s-0.02-0.35-0.04-0.51s-0.03-0.3-0.04-0.42s-0.02-0.2-0.02-0.24V6.01c-0.06,0.06-0.13,0.16-0.21,0.28s-0.17,0.26-0.26,0.4
			s-0.19,0.29-0.28,0.44s-0.18,0.29-0.25,0.41s-0.14,0.22-0.18,0.3s-0.07,0.12-0.07,0.13l-0.25-0.19c0,0,0.06-0.1,0.17-0.29
			s0.25-0.43,0.43-0.73s0.38-0.62,0.61-0.98s0.46-0.71,0.7-1.04l0.27,0.23C122.11,5.01,122.09,5.06,122.05,5.1z"/>
	</g>
	<g>
		<path fill="#353131" d="M10.69,21.82c0.43,0,0.77-0.08,1.01-0.24c0.24-0.16,0.36-0.41,0.36-0.77c0-0.2-0.04-0.37-0.12-0.51
			s-0.18-0.25-0.31-0.34c-0.13-0.09-0.28-0.17-0.44-0.24c-0.17-0.07-0.34-0.14-0.52-0.21c-0.23-0.09-0.43-0.18-0.62-0.28
			c-0.18-0.1-0.34-0.2-0.46-0.32c-0.13-0.12-0.23-0.26-0.29-0.41c-0.07-0.15-0.1-0.34-0.1-0.54c0-0.47,0.16-0.83,0.47-1.08
			c0.31-0.25,0.75-0.37,1.31-0.37c0.15,0,0.3,0.01,0.44,0.03c0.14,0.02,0.28,0.05,0.4,0.08c0.13,0.03,0.24,0.07,0.34,0.12
			c0.1,0.04,0.19,0.09,0.26,0.14l-0.19,0.46c-0.15-0.11-0.34-0.19-0.56-0.26c-0.22-0.06-0.46-0.1-0.72-0.1
			c-0.18,0-0.34,0.02-0.48,0.05s-0.27,0.09-0.38,0.17c-0.11,0.08-0.19,0.17-0.25,0.29c-0.06,0.12-0.09,0.26-0.09,0.42
			c0,0.17,0.03,0.31,0.1,0.43c0.06,0.12,0.15,0.22,0.27,0.3c0.12,0.09,0.25,0.16,0.4,0.23s0.32,0.14,0.5,0.22
			c0.22,0.09,0.43,0.18,0.62,0.27c0.19,0.09,0.36,0.2,0.51,0.32c0.14,0.12,0.26,0.27,0.34,0.45c0.08,0.18,0.13,0.39,0.13,0.65
			c0,0.5-0.17,0.88-0.52,1.13c-0.35,0.25-0.82,0.38-1.42,0.38c-0.21,0-0.41-0.01-0.58-0.04c-0.18-0.03-0.33-0.06-0.47-0.1
			s-0.26-0.08-0.35-0.12c-0.1-0.04-0.17-0.08-0.22-0.11l0.18-0.47c0.05,0.03,0.13,0.07,0.22,0.11c0.09,0.04,0.2,0.08,0.32,0.12
			c0.12,0.04,0.26,0.07,0.42,0.1C10.33,21.81,10.5,21.82,10.69,21.82z"/>
		<path fill="#353131" d="M14.09,18.04h1.65v0.44h-1.65v2.2c0,0.23,0.02,0.43,0.06,0.57c0.04,0.15,0.1,0.26,0.17,0.34
			c0.07,0.08,0.17,0.13,0.27,0.16c0.11,0.03,0.22,0.04,0.35,0.04c0.22,0,0.39-0.03,0.53-0.08c0.13-0.05,0.24-0.1,0.31-0.14
			l0.13,0.43c-0.08,0.05-0.21,0.1-0.39,0.16c-0.19,0.06-0.39,0.09-0.61,0.09c-0.26,0-0.47-0.03-0.64-0.1
			c-0.17-0.07-0.31-0.17-0.42-0.3c-0.1-0.14-0.18-0.31-0.22-0.51c-0.04-0.2-0.06-0.44-0.06-0.72v-3.81l0.52-0.1V18.04z"/>
		<path fill="#353131" d="M20.22,20.11c0,0.33-0.05,0.62-0.14,0.89c-0.09,0.27-0.22,0.49-0.39,0.68c-0.17,0.19-0.37,0.33-0.6,0.44
			s-0.48,0.16-0.76,0.16s-0.53-0.05-0.76-0.16c-0.23-0.1-0.43-0.25-0.6-0.44c-0.17-0.19-0.3-0.41-0.39-0.68
			c-0.09-0.27-0.14-0.56-0.14-0.89s0.05-0.62,0.14-0.89c0.09-0.27,0.22-0.49,0.39-0.68c0.17-0.19,0.37-0.34,0.6-0.44
			c0.23-0.1,0.48-0.16,0.76-0.16s0.53,0.05,0.76,0.16s0.43,0.25,0.6,0.44c0.17,0.19,0.3,0.42,0.39,0.68
			C20.18,19.49,20.22,19.79,20.22,20.11z M19.67,20.11c0-0.52-0.12-0.93-0.36-1.24s-0.57-0.46-0.98-0.46
			c-0.41,0-0.74,0.15-0.98,0.46S17,19.59,17,20.11c0,0.52,0.12,0.93,0.36,1.23s0.57,0.46,0.98,0.46c0.41,0,0.74-0.15,0.98-0.46
			S19.67,20.63,19.67,20.11z"/>
		<path fill="#353131" d="M22.6,21.61c0.11-0.23,0.23-0.49,0.34-0.79c0.12-0.3,0.23-0.6,0.34-0.92c0.11-0.32,0.21-0.64,0.31-0.96
			c0.09-0.32,0.17-0.63,0.24-0.91h0.52c-0.1,0.38-0.2,0.75-0.32,1.12c-0.12,0.37-0.24,0.73-0.37,1.08
			c-0.13,0.35-0.27,0.69-0.41,1.02c-0.14,0.33-0.28,0.63-0.41,0.92h-0.49c-0.14-0.29-0.28-0.59-0.42-0.92
			c-0.14-0.33-0.28-0.66-0.41-1.02c-0.13-0.35-0.26-0.71-0.37-1.08c-0.12-0.37-0.23-0.74-0.32-1.12h0.55
			c0.06,0.28,0.14,0.59,0.24,0.91s0.2,0.64,0.3,0.96s0.22,0.62,0.34,0.92C22.38,21.12,22.49,21.39,22.6,21.61z"/>
		<path fill="#353131" d="M26.46,22.26c-0.17-0.33-0.34-0.67-0.5-1.02c-0.16-0.35-0.32-0.71-0.46-1.07
			c-0.14-0.36-0.27-0.72-0.39-1.08c-0.12-0.36-0.22-0.71-0.3-1.06h0.55c0.06,0.26,0.13,0.53,0.22,0.83c0.09,0.3,0.19,0.6,0.31,0.92
			c0.11,0.31,0.24,0.64,0.38,0.97c0.14,0.33,0.29,0.66,0.45,0.98c0.12-0.33,0.22-0.64,0.32-0.93s0.18-0.58,0.25-0.88
			s0.15-0.59,0.23-0.89c0.07-0.3,0.15-0.63,0.22-0.99h0.52c-0.17,0.77-0.37,1.53-0.59,2.26s-0.45,1.4-0.71,2.01
			c-0.1,0.24-0.21,0.45-0.31,0.62s-0.23,0.32-0.36,0.43c-0.13,0.11-0.28,0.19-0.46,0.25s-0.38,0.08-0.61,0.08
			c-0.13,0-0.26-0.02-0.37-0.05c-0.11-0.03-0.18-0.06-0.21-0.07l0.1-0.43c0.02,0.02,0.08,0.04,0.18,0.07
			c0.1,0.03,0.2,0.04,0.31,0.04c0.15,0,0.29-0.02,0.41-0.05c0.12-0.03,0.23-0.09,0.33-0.16c0.1-0.08,0.18-0.18,0.26-0.3
			C26.32,22.6,26.39,22.45,26.46,22.26z"/>
		<path fill="#353131" d="M30.17,19.92c0.19,0.13,0.38,0.29,0.57,0.46c0.19,0.17,0.38,0.36,0.57,0.56c0.19,0.2,0.36,0.41,0.53,0.62
			c0.17,0.21,0.31,0.41,0.42,0.6h-0.63c-0.13-0.21-0.27-0.42-0.44-0.62s-0.34-0.39-0.52-0.57c-0.18-0.18-0.36-0.34-0.54-0.49
			c-0.18-0.15-0.34-0.26-0.48-0.33v2.01h-0.52v-6.11l0.52-0.1v3.85c0.11-0.1,0.25-0.23,0.42-0.39s0.33-0.33,0.51-0.5
			c0.17-0.17,0.33-0.33,0.49-0.48c0.15-0.16,0.28-0.29,0.38-0.41h0.64c-0.12,0.13-0.26,0.27-0.42,0.43
			c-0.16,0.16-0.32,0.32-0.5,0.49s-0.34,0.34-0.51,0.5C30.49,19.62,30.32,19.77,30.17,19.92z"/>
		<path fill="#353131" d="M34.13,22.25c-0.18-0.01-0.33-0.03-0.46-0.07s-0.24-0.1-0.33-0.18c-0.09-0.08-0.16-0.19-0.2-0.32
			c-0.05-0.13-0.07-0.29-0.07-0.49v-5.12l0.52-0.1v5.2c0,0.13,0.01,0.23,0.04,0.31c0.02,0.08,0.06,0.14,0.11,0.18
			c0.05,0.05,0.11,0.08,0.19,0.1c0.08,0.02,0.17,0.04,0.28,0.06L34.13,22.25z"/>
		<path fill="#353131" d="M36.38,17.94c0.27,0,0.5,0.04,0.69,0.12c0.19,0.08,0.34,0.18,0.46,0.32c0.12,0.14,0.2,0.3,0.26,0.48
			c0.05,0.19,0.08,0.39,0.08,0.61v2.61c-0.05,0.02-0.13,0.03-0.23,0.05c-0.1,0.02-0.22,0.04-0.35,0.06
			c-0.13,0.02-0.28,0.04-0.44,0.05c-0.16,0.01-0.33,0.02-0.5,0.02c-0.22,0-0.42-0.02-0.6-0.07c-0.18-0.05-0.34-0.12-0.48-0.23
			c-0.14-0.1-0.24-0.24-0.32-0.4s-0.12-0.36-0.12-0.6c0-0.22,0.04-0.42,0.13-0.58c0.08-0.16,0.21-0.29,0.36-0.4
			c0.15-0.1,0.34-0.18,0.55-0.23c0.21-0.05,0.45-0.07,0.7-0.07c0.07,0,0.15,0,0.24,0.01c0.08,0.01,0.16,0.02,0.24,0.03
			s0.14,0.03,0.2,0.04s0.09,0.03,0.12,0.04v-0.26c0-0.14-0.01-0.28-0.03-0.42c-0.02-0.14-0.07-0.26-0.14-0.37
			c-0.07-0.11-0.17-0.2-0.3-0.26s-0.3-0.1-0.52-0.1c-0.3,0-0.53,0.02-0.68,0.06c-0.15,0.04-0.26,0.08-0.33,0.1l-0.07-0.46
			c0.09-0.04,0.23-0.08,0.42-0.12C35.89,17.96,36.12,17.94,36.38,17.94z M36.43,21.8c0.2,0,0.38-0.01,0.53-0.02
			c0.15-0.01,0.28-0.03,0.39-0.05v-1.46c-0.06-0.03-0.15-0.05-0.28-0.08s-0.3-0.04-0.53-0.04c-0.13,0-0.26,0.01-0.4,0.03
			s-0.27,0.06-0.38,0.12c-0.12,0.06-0.21,0.15-0.29,0.25c-0.08,0.11-0.11,0.25-0.11,0.42c0,0.15,0.03,0.29,0.08,0.39
			c0.05,0.11,0.12,0.19,0.22,0.26c0.09,0.06,0.21,0.11,0.34,0.14S36.27,21.8,36.43,21.8z"/>
		<path fill="#353131" d="M40.45,21.61c0.11-0.23,0.23-0.49,0.34-0.79c0.12-0.3,0.23-0.6,0.34-0.92c0.11-0.32,0.21-0.64,0.31-0.96
			c0.09-0.32,0.17-0.63,0.24-0.91h0.52c-0.1,0.38-0.2,0.75-0.32,1.12c-0.12,0.37-0.24,0.73-0.37,1.08
			c-0.13,0.35-0.27,0.69-0.41,1.02c-0.14,0.33-0.28,0.63-0.41,0.92h-0.49c-0.14-0.29-0.28-0.59-0.42-0.92
			c-0.14-0.33-0.28-0.66-0.41-1.02c-0.13-0.35-0.26-0.71-0.37-1.08c-0.12-0.37-0.23-0.74-0.32-1.12h0.55
			c0.06,0.28,0.14,0.59,0.24,0.91s0.2,0.64,0.3,0.96s0.22,0.62,0.34,0.92C40.22,21.12,40.34,21.39,40.45,21.61z"/>
		<path fill="#353131" d="M43.68,16.79c0,0.12-0.04,0.22-0.11,0.29c-0.08,0.07-0.17,0.11-0.27,0.11c-0.11,0-0.2-0.04-0.27-0.11
			c-0.08-0.07-0.11-0.17-0.11-0.29c0-0.12,0.04-0.22,0.11-0.29c0.07-0.07,0.17-0.11,0.27-0.11c0.11,0,0.2,0.04,0.27,0.11
			C43.64,16.57,43.68,16.67,43.68,16.79z M43.56,22.17h-0.52v-4.14h0.52V22.17z"/>
		<path fill="#353131" d="M44.69,20.1c0-0.36,0.05-0.68,0.16-0.95c0.1-0.27,0.24-0.49,0.41-0.68c0.17-0.18,0.36-0.32,0.58-0.4
			c0.22-0.09,0.44-0.13,0.67-0.13c0.51,0,0.91,0.17,1.21,0.5c0.3,0.33,0.45,0.84,0.45,1.53c0,0.04,0,0.09,0,0.13
			c0,0.04-0.01,0.08-0.01,0.12h-2.9c0.02,0.51,0.14,0.9,0.38,1.17c0.23,0.27,0.61,0.41,1.12,0.41c0.28,0,0.51-0.03,0.67-0.08
			c0.17-0.05,0.29-0.1,0.36-0.14l0.1,0.45c-0.08,0.04-0.21,0.09-0.42,0.15c-0.21,0.06-0.45,0.09-0.72,0.09
			c-0.36,0-0.67-0.05-0.93-0.16c-0.26-0.11-0.47-0.26-0.63-0.45c-0.17-0.19-0.29-0.42-0.36-0.68C44.72,20.71,44.69,20.42,44.69,20.1
			z M47.62,19.77c-0.01-0.43-0.11-0.77-0.3-1.01c-0.19-0.24-0.46-0.36-0.82-0.36c-0.19,0-0.35,0.04-0.5,0.11s-0.27,0.17-0.38,0.3
			s-0.2,0.27-0.26,0.44c-0.06,0.17-0.1,0.34-0.11,0.52H47.62z"/>
		<path fill="#353131" d="M49.81,18.04h1.65v0.44h-1.65v2.2c0,0.23,0.02,0.43,0.06,0.57c0.04,0.15,0.1,0.26,0.17,0.34
			c0.07,0.08,0.17,0.13,0.27,0.16c0.11,0.03,0.22,0.04,0.35,0.04c0.22,0,0.39-0.03,0.53-0.08c0.13-0.05,0.24-0.1,0.31-0.14
			l0.13,0.43c-0.07,0.05-0.21,0.1-0.39,0.16c-0.19,0.06-0.39,0.09-0.61,0.09c-0.26,0-0.47-0.03-0.64-0.1
			c-0.17-0.07-0.31-0.17-0.42-0.3c-0.1-0.14-0.18-0.31-0.22-0.51c-0.04-0.2-0.06-0.44-0.06-0.72v-3.81l0.52-0.1V18.04z"/>
		<path fill="#353131" d="M52.17,20.1c0-0.36,0.05-0.68,0.16-0.95c0.1-0.27,0.24-0.49,0.41-0.68c0.17-0.18,0.36-0.32,0.58-0.4
			s0.44-0.13,0.67-0.13c0.51,0,0.91,0.17,1.21,0.5c0.3,0.33,0.45,0.84,0.45,1.53c0,0.04,0,0.09,0,0.13c0,0.04-0.01,0.08-0.01,0.12
			h-2.9c0.02,0.51,0.14,0.9,0.38,1.17s0.61,0.41,1.12,0.41c0.28,0,0.51-0.03,0.67-0.08s0.29-0.1,0.36-0.14l0.1,0.45
			c-0.08,0.04-0.21,0.09-0.42,0.15s-0.45,0.09-0.72,0.09c-0.36,0-0.67-0.05-0.93-0.16c-0.26-0.11-0.47-0.26-0.63-0.45
			s-0.29-0.42-0.36-0.68C52.2,20.71,52.17,20.42,52.17,20.1z M55.1,19.77c-0.01-0.43-0.11-0.77-0.3-1.01
			c-0.19-0.24-0.46-0.36-0.82-0.36c-0.19,0-0.35,0.04-0.5,0.11c-0.15,0.07-0.27,0.17-0.38,0.3s-0.19,0.27-0.26,0.44
			s-0.1,0.34-0.11,0.52H55.1z M53.97,17.19c-0.11,0-0.2-0.04-0.27-0.11c-0.07-0.07-0.11-0.17-0.11-0.29c0-0.12,0.04-0.22,0.11-0.29
			c0.08-0.07,0.17-0.11,0.27-0.11s0.2,0.04,0.27,0.11c0.07,0.07,0.11,0.17,0.11,0.29c0,0.12-0.04,0.22-0.11,0.29
			C54.16,17.15,54.07,17.19,53.97,17.19z"/>
		<path fill="#353131" d="M57.41,21.42c0,0.05,0.01,0.09,0.01,0.13c0,0.04,0,0.07,0,0.1c0,0.33-0.05,0.65-0.14,0.95
			c-0.09,0.3-0.22,0.59-0.39,0.86l-0.38-0.18c0.12-0.23,0.21-0.48,0.26-0.74s0.08-0.53,0.08-0.8c0-0.06,0-0.12,0-0.16
			s-0.01-0.09-0.01-0.15H57.41z"/>
		<path fill="#353131" d="M61.11,18.29c0.09-0.07,0.24-0.14,0.44-0.22s0.44-0.12,0.71-0.12c0.3,0,0.56,0.05,0.8,0.16
			c0.23,0.11,0.43,0.26,0.59,0.45c0.16,0.19,0.28,0.42,0.36,0.68c0.08,0.26,0.12,0.55,0.12,0.87c0,0.34-0.05,0.64-0.15,0.9
			c-0.1,0.27-0.24,0.49-0.42,0.68s-0.39,0.33-0.64,0.43c-0.25,0.1-0.52,0.15-0.83,0.15c-0.37,0-0.67-0.02-0.91-0.07
			s-0.44-0.1-0.59-0.15v-5.98l0.52-0.1V18.29z M61.11,21.69c0.08,0.03,0.2,0.05,0.36,0.08s0.36,0.04,0.62,0.04
			c0.45,0,0.81-0.15,1.08-0.44c0.27-0.29,0.41-0.71,0.41-1.25c0-0.23-0.02-0.45-0.07-0.65c-0.05-0.21-0.13-0.38-0.23-0.54
			s-0.25-0.27-0.42-0.36c-0.17-0.09-0.39-0.14-0.64-0.14c-0.12,0-0.24,0.01-0.35,0.04c-0.11,0.02-0.22,0.05-0.31,0.09
			c-0.1,0.04-0.18,0.08-0.25,0.12c-0.07,0.04-0.13,0.08-0.18,0.12V21.69z"/>
		<path fill="#353131" d="M66.51,17.94c0.27,0,0.5,0.04,0.69,0.12c0.19,0.08,0.34,0.18,0.46,0.32c0.12,0.14,0.2,0.3,0.26,0.48
			c0.05,0.19,0.08,0.39,0.08,0.61v2.61c-0.05,0.02-0.13,0.03-0.23,0.05s-0.22,0.04-0.35,0.06c-0.13,0.02-0.28,0.04-0.44,0.05
			c-0.16,0.01-0.33,0.02-0.5,0.02c-0.22,0-0.42-0.02-0.6-0.07c-0.18-0.05-0.34-0.12-0.48-0.23s-0.24-0.24-0.32-0.4
			s-0.12-0.36-0.12-0.6c0-0.22,0.04-0.42,0.13-0.58c0.08-0.16,0.21-0.29,0.36-0.4c0.16-0.1,0.34-0.18,0.55-0.23
			c0.21-0.05,0.45-0.07,0.7-0.07c0.08,0,0.15,0,0.24,0.01c0.08,0.01,0.16,0.02,0.24,0.03c0.08,0.01,0.14,0.03,0.2,0.04
			c0.06,0.01,0.09,0.03,0.12,0.04v-0.26c0-0.14-0.01-0.28-0.03-0.42c-0.02-0.14-0.07-0.26-0.14-0.37s-0.17-0.2-0.3-0.26
			c-0.13-0.07-0.3-0.1-0.52-0.1c-0.3,0-0.53,0.02-0.68,0.06c-0.15,0.04-0.26,0.08-0.33,0.1l-0.07-0.46
			c0.09-0.04,0.23-0.08,0.42-0.12C66.02,17.96,66.24,17.94,66.51,17.94z M66.56,21.8c0.2,0,0.38-0.01,0.53-0.02
			c0.15-0.01,0.28-0.03,0.39-0.05v-1.46c-0.06-0.03-0.15-0.05-0.28-0.08s-0.3-0.04-0.53-0.04c-0.13,0-0.26,0.01-0.4,0.03
			s-0.27,0.06-0.38,0.12c-0.12,0.06-0.21,0.15-0.29,0.25c-0.08,0.11-0.11,0.25-0.11,0.42c0,0.15,0.03,0.29,0.08,0.39
			c0.05,0.11,0.12,0.19,0.22,0.26c0.09,0.06,0.21,0.11,0.34,0.14C66.24,21.78,66.39,21.8,66.56,21.8z"/>
		<path fill="#353131" d="M69.97,16.79c0,0.12-0.04,0.22-0.11,0.29c-0.08,0.07-0.17,0.11-0.27,0.11c-0.11,0-0.2-0.04-0.27-0.11
			c-0.08-0.07-0.11-0.17-0.11-0.29c0-0.12,0.04-0.22,0.11-0.29c0.07-0.07,0.17-0.11,0.27-0.11c0.11,0,0.2,0.04,0.27,0.11
			C69.93,16.57,69.97,16.67,69.97,16.79z M69.85,22.17h-0.52v-4.14h0.52V22.17z"/>
		<path fill="#353131" d="M74.51,22.05c-0.16,0.05-0.35,0.1-0.59,0.15c-0.24,0.05-0.54,0.07-0.91,0.07c-0.3,0-0.58-0.05-0.83-0.15
			c-0.25-0.1-0.46-0.24-0.64-0.43s-0.32-0.41-0.42-0.68c-0.1-0.27-0.15-0.57-0.15-0.9c0-0.31,0.04-0.6,0.12-0.87
			c0.08-0.26,0.2-0.49,0.36-0.68c0.16-0.19,0.36-0.34,0.59-0.45c0.23-0.11,0.5-0.16,0.8-0.16c0.27,0,0.51,0.04,0.71,0.12
			s0.34,0.15,0.44,0.22v-2.22l0.52-0.1V22.05z M73.99,18.79c-0.05-0.04-0.11-0.08-0.18-0.12s-0.16-0.08-0.25-0.12
			c-0.1-0.04-0.2-0.07-0.31-0.09c-0.11-0.02-0.23-0.04-0.35-0.04c-0.26,0-0.47,0.05-0.64,0.14c-0.17,0.09-0.31,0.21-0.42,0.36
			c-0.11,0.15-0.18,0.33-0.23,0.54c-0.05,0.21-0.07,0.42-0.07,0.65c0,0.54,0.14,0.96,0.41,1.25c0.27,0.29,0.63,0.44,1.08,0.44
			c0.26,0,0.46-0.01,0.62-0.04c0.16-0.02,0.28-0.05,0.36-0.08V18.79z"/>
		<path fill="#353131" d="M77.14,17.94c0.27,0,0.5,0.04,0.69,0.12c0.19,0.08,0.34,0.18,0.46,0.32c0.12,0.14,0.2,0.3,0.26,0.48
			c0.05,0.19,0.08,0.39,0.08,0.61v2.61c-0.05,0.02-0.13,0.03-0.23,0.05s-0.22,0.04-0.35,0.06c-0.13,0.02-0.28,0.04-0.44,0.05
			c-0.16,0.01-0.33,0.02-0.5,0.02c-0.22,0-0.42-0.02-0.6-0.07c-0.18-0.05-0.34-0.12-0.48-0.23s-0.24-0.24-0.32-0.4
			s-0.12-0.36-0.12-0.6c0-0.22,0.04-0.42,0.13-0.58c0.08-0.16,0.21-0.29,0.36-0.4c0.16-0.1,0.34-0.18,0.55-0.23
			c0.21-0.05,0.45-0.07,0.7-0.07c0.08,0,0.15,0,0.24,0.01c0.08,0.01,0.16,0.02,0.24,0.03c0.08,0.01,0.14,0.03,0.2,0.04
			c0.06,0.01,0.09,0.03,0.12,0.04v-0.26c0-0.14-0.01-0.28-0.03-0.42c-0.02-0.14-0.07-0.26-0.14-0.37s-0.17-0.2-0.3-0.26
			c-0.13-0.07-0.3-0.1-0.52-0.1c-0.3,0-0.53,0.02-0.68,0.06c-0.15,0.04-0.26,0.08-0.33,0.1l-0.07-0.46
			c0.09-0.04,0.23-0.08,0.42-0.12C76.65,17.96,76.88,17.94,77.14,17.94z M77.19,21.8c0.2,0,0.38-0.01,0.53-0.02
			c0.15-0.01,0.28-0.03,0.39-0.05v-1.46c-0.06-0.03-0.15-0.05-0.28-0.08s-0.3-0.04-0.53-0.04c-0.13,0-0.26,0.01-0.4,0.03
			s-0.27,0.06-0.38,0.12c-0.12,0.06-0.21,0.15-0.29,0.25c-0.08,0.11-0.11,0.25-0.11,0.42c0,0.15,0.03,0.29,0.08,0.39
			c0.05,0.11,0.12,0.19,0.22,0.26c0.09,0.06,0.21,0.11,0.34,0.14C76.88,21.78,77.02,21.8,77.19,21.8z"/>
		<path fill="#353131" d="M81.37,17.96c0.17,0,0.33,0.01,0.48,0.04c0.15,0.03,0.26,0.05,0.32,0.08l-0.1,0.45
			c-0.04-0.02-0.13-0.04-0.26-0.07c-0.13-0.02-0.3-0.04-0.52-0.04c-0.22,0-0.4,0.02-0.54,0.05c-0.14,0.03-0.23,0.06-0.27,0.08v3.62
			h-0.52v-3.94c0.13-0.06,0.32-0.12,0.55-0.18C80.74,17.99,81.03,17.96,81.37,17.96z"/>
		<path fill="#353131" d="M83.59,16.79c0,0.12-0.04,0.22-0.11,0.29c-0.08,0.07-0.17,0.11-0.27,0.11c-0.11,0-0.2-0.04-0.27-0.11
			c-0.08-0.07-0.11-0.17-0.11-0.29c0-0.12,0.04-0.22,0.11-0.29c0.07-0.07,0.17-0.11,0.27-0.11c0.11,0,0.2,0.04,0.27,0.11
			C83.55,16.57,83.59,16.67,83.59,16.79z M83.47,22.17h-0.52v-4.14h0.52V22.17z"/>
		<path fill="#353131" d="M87.45,22.17c-0.14,0.02-0.29,0.04-0.46,0.06c-0.17,0.02-0.35,0.03-0.56,0.03c-0.31,0-0.57-0.05-0.78-0.14
			c-0.21-0.09-0.38-0.22-0.5-0.38s-0.22-0.37-0.28-0.6c-0.06-0.23-0.08-0.49-0.08-0.78v-2.32h0.52v2.15c0,0.29,0.02,0.54,0.06,0.74
			c0.04,0.2,0.11,0.37,0.21,0.49c0.1,0.13,0.22,0.22,0.37,0.27c0.15,0.06,0.34,0.08,0.56,0.08c0.25,0,0.46-0.01,0.64-0.04
			c0.18-0.03,0.3-0.05,0.34-0.07v-3.63h0.52v4.03c-0.06,0.05-0.13,0.11-0.19,0.18c-0.06,0.07-0.13,0.14-0.21,0.21
			c-0.08,0.09-0.15,0.18-0.2,0.26c-0.05,0.08-0.08,0.17-0.08,0.26c0,0.1,0.03,0.17,0.1,0.21c0.06,0.04,0.14,0.06,0.24,0.06
			c0.05,0,0.1,0,0.16-0.01c0.06-0.01,0.11-0.02,0.15-0.04l0.04,0.38c-0.04,0.02-0.11,0.03-0.19,0.05c-0.08,0.02-0.16,0.02-0.24,0.02
			c-0.29,0-0.49-0.05-0.61-0.16s-0.18-0.24-0.18-0.4c0-0.2,0.07-0.38,0.2-0.53C87.13,22.43,87.28,22.29,87.45,22.17z"/>
		<path fill="#353131" d="M91.22,18.18c0.16-0.04,0.36-0.09,0.62-0.14c0.26-0.05,0.58-0.08,0.96-0.08c0.31,0,0.58,0.05,0.79,0.14
			c0.21,0.09,0.38,0.22,0.5,0.39c0.13,0.17,0.21,0.37,0.27,0.6c0.05,0.23,0.08,0.49,0.08,0.78v2.31h-0.52v-2.14
			c0-0.29-0.02-0.54-0.06-0.74c-0.04-0.2-0.11-0.37-0.2-0.5c-0.09-0.13-0.22-0.22-0.37-0.28c-0.15-0.06-0.34-0.08-0.57-0.08
			c-0.25,0-0.46,0.01-0.64,0.04c-0.18,0.03-0.29,0.05-0.35,0.07v3.63h-0.52V18.18z"/>
		<path fill="#353131" d="M98.95,22.03c-0.15,0.04-0.36,0.09-0.62,0.14s-0.58,0.08-0.96,0.08c-0.31,0-0.57-0.05-0.78-0.14
			c-0.21-0.09-0.38-0.22-0.5-0.38s-0.22-0.37-0.28-0.6c-0.06-0.23-0.08-0.49-0.08-0.78v-2.32h0.52v2.15c0,0.29,0.02,0.54,0.06,0.74
			c0.04,0.2,0.11,0.37,0.21,0.49c0.1,0.13,0.22,0.22,0.37,0.27c0.15,0.06,0.34,0.08,0.56,0.08c0.25,0,0.46-0.01,0.64-0.04
			c0.18-0.03,0.3-0.05,0.34-0.07v-3.63h0.52V22.03z"/>
		<path fill="#353131" d="M103.85,20.11c0,0.33-0.05,0.62-0.14,0.89s-0.22,0.49-0.39,0.68c-0.17,0.19-0.37,0.33-0.6,0.44
			s-0.48,0.16-0.76,0.16s-0.53-0.05-0.76-0.16s-0.43-0.25-0.6-0.44c-0.17-0.19-0.3-0.41-0.39-0.68c-0.09-0.27-0.14-0.56-0.14-0.89
			s0.05-0.62,0.14-0.89c0.09-0.27,0.22-0.49,0.39-0.68c0.17-0.19,0.37-0.34,0.6-0.44s0.48-0.16,0.76-0.16s0.53,0.05,0.76,0.16
			s0.43,0.25,0.6,0.44c0.17,0.19,0.3,0.42,0.39,0.68C103.81,19.49,103.85,19.79,103.85,20.11z M103.3,20.11
			c0-0.52-0.12-0.93-0.36-1.24c-0.24-0.31-0.57-0.46-0.98-0.46c-0.41,0-0.74,0.15-0.98,0.46c-0.24,0.31-0.36,0.72-0.36,1.24
			c0,0.52,0.12,0.93,0.36,1.23c0.24,0.3,0.57,0.46,0.98,0.46c0.41,0,0.74-0.15,0.98-0.46C103.18,21.04,103.3,20.63,103.3,20.11z"/>
		<path fill="#353131" d="M104.98,18.18c0.16-0.04,0.36-0.09,0.6-0.14c0.25-0.05,0.57-0.08,0.96-0.08c0.52,0,0.9,0.15,1.14,0.46
			c0.03-0.02,0.08-0.06,0.16-0.11c0.08-0.05,0.17-0.1,0.29-0.16s0.25-0.1,0.41-0.14c0.16-0.04,0.33-0.06,0.52-0.06
			c0.32,0,0.57,0.05,0.76,0.14c0.19,0.09,0.34,0.22,0.45,0.39c0.11,0.17,0.18,0.37,0.22,0.6c0.04,0.23,0.06,0.49,0.06,0.77v2.31
			h-0.52v-2.14c0-0.27-0.01-0.51-0.04-0.71c-0.02-0.2-0.07-0.37-0.14-0.5c-0.07-0.13-0.17-0.23-0.31-0.3
			c-0.13-0.07-0.31-0.1-0.52-0.1c-0.16,0-0.3,0.01-0.44,0.04c-0.13,0.03-0.24,0.07-0.34,0.11c-0.1,0.04-0.17,0.08-0.24,0.13
			c-0.06,0.04-0.11,0.07-0.13,0.1c0.05,0.14,0.08,0.29,0.11,0.47c0.02,0.17,0.04,0.36,0.04,0.55v2.35h-0.52v-2.14
			c0-0.27-0.01-0.51-0.04-0.71c-0.02-0.2-0.07-0.37-0.15-0.5c-0.08-0.13-0.18-0.23-0.32-0.3c-0.14-0.07-0.32-0.1-0.54-0.1
			c-0.25,0-0.46,0.01-0.64,0.04c-0.17,0.03-0.28,0.05-0.33,0.07v3.63h-0.52V18.18z"/>
		<path fill="#353131" d="M113.14,17.94c0.27,0,0.5,0.04,0.69,0.12c0.19,0.08,0.34,0.18,0.46,0.32c0.12,0.14,0.2,0.3,0.26,0.48
			c0.05,0.19,0.08,0.39,0.08,0.61v2.61c-0.05,0.02-0.13,0.03-0.23,0.05c-0.1,0.02-0.22,0.04-0.35,0.06
			c-0.13,0.02-0.28,0.04-0.44,0.05c-0.16,0.01-0.33,0.02-0.5,0.02c-0.22,0-0.42-0.02-0.6-0.07c-0.18-0.05-0.34-0.12-0.48-0.23
			c-0.14-0.1-0.24-0.24-0.32-0.4s-0.12-0.36-0.12-0.6c0-0.22,0.04-0.42,0.13-0.58c0.08-0.16,0.21-0.29,0.36-0.4
			c0.15-0.1,0.34-0.18,0.55-0.23c0.21-0.05,0.45-0.07,0.7-0.07c0.07,0,0.15,0,0.24,0.01c0.08,0.01,0.16,0.02,0.24,0.03
			s0.14,0.03,0.2,0.04s0.09,0.03,0.12,0.04v-0.26c0-0.14-0.01-0.28-0.03-0.42c-0.02-0.14-0.07-0.26-0.14-0.37
			c-0.07-0.11-0.17-0.2-0.3-0.26s-0.3-0.1-0.52-0.1c-0.3,0-0.53,0.02-0.68,0.06c-0.15,0.04-0.26,0.08-0.33,0.1l-0.07-0.46
			c0.09-0.04,0.23-0.08,0.42-0.12C112.65,17.96,112.87,17.94,113.14,17.94z M113.19,21.8c0.2,0,0.38-0.01,0.53-0.02
			c0.15-0.01,0.28-0.03,0.39-0.05v-1.46c-0.06-0.03-0.15-0.05-0.28-0.08s-0.3-0.04-0.53-0.04c-0.13,0-0.26,0.01-0.4,0.03
			s-0.27,0.06-0.38,0.12c-0.12,0.06-0.21,0.15-0.29,0.25c-0.08,0.11-0.11,0.25-0.11,0.42c0,0.15,0.03,0.29,0.08,0.39
			c0.05,0.11,0.12,0.19,0.22,0.26c0.09,0.06,0.21,0.11,0.34,0.14S113.02,21.8,113.19,21.8z"/>
	</g>
</g>
</svg>
